<svg width="70" height="70" viewBox="0 0 70 70" fill="none" xmlns="http://www.w3.org/2000/svg">
<path d="M41.8541 24.9375C41.2708 23.4792 40.408 22.3368 39.2656 21.5104C38.1232 20.684 36.75 20.2709 35.1458 20.2709C34.2708 20.2709 33.4201 20.3924 32.5937 20.6354C31.7673 20.8785 31.0139 21.3403 30.3333 22.0209L26.1041 17.7917C26.7847 17.1111 27.7083 16.4913 28.875 15.9323C30.0416 15.3733 31.1111 15.0209 32.0833 14.875V8.75002H37.9166V14.7292C40.1041 15.1667 42.0243 16.0538 43.6771 17.3906C45.3298 18.7275 46.5694 20.4653 47.3958 22.6042L41.8541 24.9375ZM57.75 65.9167L44.3333 52.5C43.6041 53.2292 42.6076 53.8247 41.3437 54.2865C40.0798 54.7483 38.9375 55.0278 37.9166 55.125V61.25H32.0833V54.9792C29.3611 54.2986 27.0885 53.0591 25.2656 51.2604C23.4427 49.4618 22.118 47.2014 21.2916 44.4792L27.125 42.1459C27.7083 44.1875 28.6927 45.9375 30.0781 47.3959C31.4635 48.8542 33.2986 49.5834 35.5833 49.5834C36.4583 49.5834 37.2604 49.474 37.9896 49.2552C38.7187 49.0365 39.4236 48.7084 40.1041 48.2709L4.08331 12.25L8.16665 8.16669L61.8333 61.8334L57.75 65.9167Z" fill="black"/>
</svg>
