<svg width="61" height="61" viewBox="0 0 61 61" fill="none" xmlns="http://www.w3.org/2000/svg">
<path d="M30.5 30.5C27.7042 30.5 25.3108 29.5045 23.3198 27.5136C21.3288 25.5226 20.3334 23.1292 20.3334 20.3334C20.3334 17.5375 21.3288 15.1441 23.3198 13.1531C25.3108 11.1622 27.7042 10.1667 30.5 10.1667C33.2959 10.1667 35.6893 11.1622 37.6802 13.1531C39.6712 15.1441 40.6667 17.5375 40.6667 20.3334C40.6667 23.1292 39.6712 25.5226 37.6802 27.5136C35.6893 29.5045 33.2959 30.5 30.5 30.5ZM10.1667 50.8334V43.7167C10.1667 42.2764 10.5373 40.9526 11.2787 39.7453C12.02 38.538 13.0049 37.6167 14.2334 36.9813C16.8597 35.6681 19.5285 34.6832 22.2396 34.0266C24.9507 33.37 27.7042 33.0417 30.5 33.0417C33.2959 33.0417 36.0493 33.37 38.7604 34.0266C41.4715 34.6832 44.1403 35.6681 46.7667 36.9813C47.9952 37.6167 48.9801 38.538 49.7214 39.7453C50.4627 40.9526 50.8334 42.2764 50.8334 43.7167V50.8334H10.1667ZM15.25 45.75H45.75V43.7167C45.75 43.2507 45.6335 42.8271 45.4005 42.4459C45.1676 42.0646 44.8604 41.7681 44.4792 41.5563C42.1917 40.4125 39.883 39.5547 37.5531 38.9828C35.2233 38.411 32.8722 38.125 30.5 38.125C28.1278 38.125 25.7768 38.411 23.4469 38.9828C21.117 39.5547 18.8084 40.4125 16.5209 41.5563C16.1396 41.7681 15.8325 42.0646 15.5995 42.4459C15.3665 42.8271 15.25 43.2507 15.25 43.7167V45.75ZM30.5 25.4167C31.8979 25.4167 33.0946 24.9189 34.0901 23.9235C35.0856 22.928 35.5834 21.7313 35.5834 20.3334C35.5834 18.9354 35.0856 17.7387 34.0901 16.7432C33.0946 15.7478 31.8979 15.25 30.5 15.25C29.1021 15.25 27.9054 15.7478 26.9099 16.7432C25.9144 17.7387 25.4167 18.9354 25.4167 20.3334C25.4167 21.7313 25.9144 22.928 26.9099 23.9235C27.9054 24.9189 29.1021 25.4167 30.5 25.4167Z" fill="black"/>
</svg>
