<svg width="72" height="72" viewBox="0 0 72 72" fill="none" xmlns="http://www.w3.org/2000/svg">
<path d="M42 45C42.85 45 43.5875 44.6875 44.2125 44.0625C44.8375 43.4375 45.15 42.7 45.15 41.85C45.15 41 44.8375 40.2625 44.2125 39.6375C43.5875 39.0125 42.85 38.7 42 38.7C41.15 38.7 40.4125 39.0125 39.7875 39.6375C39.1625 40.2625 38.85 41 38.85 41.85C38.85 42.7 39.1625 43.4375 39.7875 44.0625C40.4125 44.6875 41.15 45 42 45ZM39.75 35.4H44.25C44.25 33.95 44.4 32.8875 44.7 32.2125C45 31.5375 45.7 30.65 46.8 29.55C48.3 28.05 49.3 26.8375 49.8 25.9125C50.3 24.9875 50.55 23.9 50.55 22.65C50.55 20.4 49.7625 18.5625 48.1875 17.1375C46.6125 15.7125 44.55 15 42 15C39.95 15 38.1625 15.575 36.6375 16.725C35.1125 17.875 34.05 19.4 33.45 21.3L37.5 22.95C37.95 21.7 38.5625 20.7625 39.3375 20.1375C40.1125 19.5125 41 19.2 42 19.2C43.2 19.2 44.175 19.5375 44.925 20.2125C45.675 20.8875 46.05 21.8 46.05 22.95C46.05 23.65 45.85 24.3125 45.45 24.9375C45.05 25.5625 44.35 26.35 43.35 27.3C41.7 28.75 40.6875 29.8875 40.3125 30.7125C39.9375 31.5375 39.75 33.1 39.75 35.4ZM24 54C22.35 54 20.9375 53.4125 19.7625 52.2375C18.5875 51.0625 18 49.65 18 48V12C18 10.35 18.5875 8.9375 19.7625 7.7625C20.9375 6.5875 22.35 6 24 6H60C61.65 6 63.0625 6.5875 64.2375 7.7625C65.4125 8.9375 66 10.35 66 12V48C66 49.65 65.4125 51.0625 64.2375 52.2375C63.0625 53.4125 61.65 54 60 54H24ZM24 48H60V12H24V48ZM12 66C10.35 66 8.9375 65.4125 7.7625 64.2375C6.5875 63.0625 6 61.65 6 60V18H12V60H54V66H12Z" fill="black"/>
</svg>
