<svg width="70" height="70" viewBox="0 0 70 70" fill="none" xmlns="http://www.w3.org/2000/svg">
<path d="M35 64.1666C28.243 62.4653 22.6649 58.5885 18.2656 52.5364C13.8663 46.4844 11.6666 39.7639 11.6666 32.375V14.5833L35 5.83331L58.3333 14.5833V32.375C58.3333 39.7639 56.1336 46.4844 51.7343 52.5364C47.335 58.5885 41.7569 62.4653 35 64.1666ZM35 58.0416C39.7152 56.5833 43.6527 53.7031 46.8125 49.401C49.9722 45.0989 51.8194 40.2986 52.3541 35H35V12.0312L17.5 18.5937V33.6875C17.5 34.0278 17.5486 34.4653 17.6458 35H35V58.0416Z" fill="black"/>
</svg>
